# xmcd CD database file
#
# Track frame offsets:
#	150
#	26269
#	56181
#	76048
#	102816
#	134408
#	157036
#	183824
#	216154
#	238101
#	262085
#	281415
#
# Disc length: 4049 seconds
#
# Revision: 0
# Processed by: cddbd v1.5.2PL0 Copyright (c) Steve Scherf et al.
# Submitted via: jetAudio 7
#
DISCID=a20fcf0c
DTITLE=Bernie Marsden - Ballyshannon Blues
DYEAR=1900
DGENRE=Blues
TTITLE0=Cradle Rock
TTITLE1=Ghost Blues
TTITLE2=Bought and Sold
TTITLE3=Sugar Mama
TTITLE4=Calling Card
TTITLE5=Walk On Hot Coals
TTITLE6=Off The Handle
TTITLE7=Million Miles Away
TTITLE8=Tore Down
TTITLE9=Bad Blood
TTITLE10=Tattooed Lady
TTITLE11=Out On The Western Plain
EXTD=
EXTT0=
EXTT1=
EXTT2=
EXTT3=
EXTT4=
EXTT5=
EXTT6=
EXTT7=
EXTT8=
EXTT9=
EXTT10=
EXTT11=
PLAYORDER=
